<svg width="254" height="254" viewBox="0 0 254 254" fill="none" xmlns="http://www.w3.org/2000/svg">
<path d="M146.538 19.5385C146.538 8.73125 137.807 0 127 0C116.193 0 107.462 8.73125 107.462 19.5385V107.462H19.5385C8.73125 107.462 0 116.193 0 127C0 137.807 8.73125 146.538 19.5385 146.538H107.462V234.462C107.462 245.269 116.193 254 127 254C137.807 254 146.538 245.269 146.538 234.462V146.538H234.462C245.269 146.538 254 137.807 254 127C254 116.193 245.269 107.462 234.462 107.462H146.538V19.5385Z" fill="white"/>
</svg>
